<svg width="751" height="455" viewBox="0 0 751 455" fill="none" xmlns="http://www.w3.org/2000/svg">
<path d="M570.554 224.122C608.591 229.699 649.125 209.604 667.856 175.856C669.585 172.683 671.122 168.741 669.297 165.664C667.856 163.26 664.686 162.299 661.804 162.683C659.019 163.068 651.719 166.241 649.318 167.779C665.743 162.203 677.557 145.184 677.077 127.781C676.981 126.051 676.693 124.032 675.156 123.262C673.139 122.109 670.737 124.032 669.681 126.051C668.624 128.07 667.28 131.531 665.358 132.877C669.489 117.974 669.777 102.11 666.319 87.1106C665.647 84.0339 664.302 80.4764 661.228 79.611C658.635 78.8418 655.753 80.4764 654.216 82.7839C652.775 85.0915 651.047 88.7451 650.662 91.4373C648.069 63.7465 623.864 41.6324 597.065 34.3251C579.391 29.5176 559.892 30.1907 543.179 37.7864C526.466 45.3821 512.826 60.2852 508.312 78.0726C503.797 95.8601 511.77 118.84 525.505 131.05C519.934 124.032 519.838 113.648 523.873 105.571C527.907 97.5908 535.495 91.7257 543.852 88.2644C564.791 79.5149 591.59 85.9568 604.653 104.513C617.044 121.916 615.699 146.915 604.461 165.087C593.223 183.259 573.532 195.085 552.784 200.374C559.028 211.335 562.39 214.7 570.554 224.122Z" fill="#D9BBA2"/>
<path d="M508.504 83.1685C513.019 65.381 526.658 50.478 543.371 42.8823C560.085 35.2865 579.487 34.6135 597.257 39.4209C624.056 46.7282 648.357 68.8424 650.855 96.5332C651.239 93.841 652.968 90.1874 654.408 87.8798C655.849 85.5722 658.731 83.8416 661.42 84.7069C664.494 85.6684 665.743 89.1297 666.511 92.2065C667.664 97.0139 668.336 102.014 668.624 106.917C668.528 100.283 667.76 93.6487 666.319 87.2068C665.647 84.13 664.302 80.5725 661.228 79.7072C658.635 78.938 655.753 80.5725 654.216 82.8801C652.776 85.1876 651.047 88.8413 650.662 91.5334C648.069 63.8427 623.864 41.7285 597.065 34.4212C579.391 29.6138 559.892 30.2868 543.179 37.8826C526.466 45.4783 512.827 60.3813 508.312 78.1688C507.063 82.8801 506.775 88.0721 507.255 93.2641C507.255 89.8028 507.64 86.3414 508.504 83.1685Z" fill="#DFC5AD"/>
<path d="M665.551 137.877C667.472 136.531 668.816 133.166 669.873 131.051C670.93 129.031 673.331 127.108 675.348 128.262C676.309 128.743 676.789 129.801 676.981 130.858C677.077 129.897 677.077 128.839 676.981 127.878C676.885 126.147 676.597 124.128 675.06 123.359C673.043 122.205 670.641 124.128 669.585 126.147C668.912 127.493 668.048 129.32 667.087 130.858C666.703 133.262 666.223 135.569 665.551 137.877Z" fill="#DFC5AD"/>
<path d="M604.653 170.183C611.281 159.51 614.354 146.434 613.394 134.031C613.298 144.896 610.224 155.953 604.461 165.279C593.223 183.451 573.532 195.278 552.785 200.566C553.649 202.104 554.513 203.546 555.282 204.796C575.165 199.22 593.799 187.682 604.653 170.183Z" fill="#DFC5AD"/>
<path d="M664.974 162.972C662.477 165.472 659.691 167.683 656.618 169.51C658.731 168.645 660.844 167.972 661.997 167.779C664.782 167.395 667.952 168.26 669.489 170.76C669.585 170.952 669.681 171.144 669.777 171.433C670.257 169.51 670.353 167.587 669.297 165.856C668.336 164.222 666.703 163.356 664.974 162.972Z" fill="#DFC5AD"/>
<path d="M521.759 127.397C523.008 128.743 524.257 130.089 525.505 131.243C523.104 128.262 521.856 124.705 521.279 120.955C521.183 123.07 521.279 125.282 521.759 127.397Z" fill="#DFC5AD"/>
<path d="M638.848 182.682C634.429 183.932 630.107 185.182 625.689 186.432C641.826 179.029 652.391 161.049 651.047 143.357C646.148 145.761 641.249 148.069 636.255 150.472C646.724 139.415 650.662 122.686 646.244 108.167C642.21 110.859 639.328 115.09 637.983 119.705C645.572 92.3026 626.841 58.5545 599.85 49.9973C571.611 41.0555 538.088 52.2087 525.409 79.7072C518.686 94.3217 514.652 117.59 525.409 131.243C519.838 124.224 519.742 113.84 523.777 105.763C527.811 97.7831 535.399 91.918 543.756 88.4567C564.695 79.7072 591.494 86.1491 604.557 104.706C616.948 122.109 615.603 147.107 604.365 165.279C593.127 183.451 573.436 195.278 552.688 200.566C556.05 206.431 558.548 210.085 561.525 213.738C589.957 212.681 617.908 201.816 638.848 182.682Z" fill="#C85E38"/>
<path d="M281.435 9.03799C296.131 24.0372 307.177 42.8823 310.155 63.7465C313.133 84.6107 309.194 106.34 299.205 124.897C290.848 120.859 284.221 115.282 275.96 111.34C293.442 80.1879 292.385 43.1707 281.435 9.03799Z" fill="#C85E38"/>
<path d="M281.435 9.03799C295.459 41.5362 293.346 80.5725 275.864 111.34C268.564 102.591 262.224 96.3409 254.924 87.4952C255.501 59.6121 265.682 32.1136 281.435 9.03799Z" fill="#E5CFC1"/>
<path d="M318.127 91.7257C312.94 93.3603 307.561 93.0718 302.182 92.5911C301.318 92.4949 300.934 93.841 301.702 94.2256C307.273 97.2062 313.325 96.2447 318.8 93.4564C319.856 92.9757 319.184 91.3411 318.127 91.7257Z" fill="#C85E38"/>
<path d="M318.415 63.7465C317.263 71.823 313.517 77.4958 307.273 82.5916C306.697 83.0724 307.273 84.2262 308.042 83.9377C315.822 81.1494 321.009 72.1114 320.144 63.9388C320.144 63.0735 318.607 62.5927 318.415 63.7465Z" fill="#C85E38"/>
<path d="M315.534 48.4589C314.189 55.9585 310.539 61.0544 306.025 66.8233C305.448 67.5925 306.601 68.6501 307.273 68.0732C313.132 63.7465 316.302 55.8623 317.455 48.9396C317.647 47.7859 315.726 47.209 315.534 48.4589Z" fill="#C85E38"/>
<path d="M734.901 386.517C729.138 378.921 719.724 375.268 710.599 372.576C701.474 369.883 691.869 367.672 684.377 361.903C672.562 352.769 666.511 335.174 651.815 332.482C640.289 330.366 626.841 338.635 617.332 331.616C609.744 326.04 610.512 314.694 611.185 305.272C613.682 269.601 580.16 239.314 545.1 222.103C516.476 281.138 496.69 309.887 433.487 327.29L427.243 336.039C425.995 352.577 441.555 365.076 455.867 373.345C480.265 387.575 506.487 399.401 534.342 404.401C562.198 409.401 591.782 407.381 617.236 395.171C624.728 391.517 632.508 386.902 640.769 387.671C648.453 388.344 654.889 393.44 661.324 397.574C683.801 411.9 712.232 416.516 738.167 409.977C747.388 407.67 740.568 394.113 734.901 386.517Z" fill="#CCA78C"/>
<path d="M271.061 307.483C284.317 287.676 265.682 259.986 246.28 251.14C224.572 241.333 198.445 244.987 177.314 252.486C157.815 259.409 140.045 270.081 121.027 278.254C102.104 286.427 81.1647 292.195 60.4172 288.638C54.7501 287.676 49.083 286.042 43.3198 285.657C37.5566 285.273 31.5053 286.427 27.375 290.272C21.1316 296.234 21.7079 307.098 26.5105 314.79C31.3132 322.386 42.5514 331.905 51.2922 333.155C84.7186 337.77 118.241 350.077 152.436 349.5C188.36 348.827 227.549 339.693 257.23 320.175C262.416 316.713 267.411 312.771 270.869 307.675C271.061 307.579 271.061 307.579 271.061 307.483Z" fill="#CCA78C"/>
<path d="M173.279 282.773C173.664 284.023 175.873 287.1 173.279 282.773V282.773Z" fill="#D9BBA2"/>
<path d="M742.585 428.246C736.822 420.65 727.409 416.996 718.284 414.304C709.159 411.612 699.553 409.4 692.061 403.632C680.247 394.497 674.195 376.902 659.499 374.21C647.973 372.095 634.526 380.364 625.016 373.345C617.428 367.768 618.196 356.423 618.869 347C621.078 315.56 612.625 283.542 595.432 257.197C595.432 257.101 595.336 256.717 595.24 256.14C591.878 236.237 582.369 217.68 567.288 204.316C552.016 190.759 533.574 181.336 513.403 179.317C494.961 177.49 476.422 181.913 458.749 187.49C441.075 193.066 423.593 199.797 405.247 202.777C394.585 204.508 383.539 204.796 372.973 202.873C366.154 199.412 358.565 197.585 351.65 195.374C351.554 195.278 351.362 195.278 351.265 195.182C350.977 194.989 350.689 194.797 350.497 194.701C350.401 194.797 350.305 194.893 350.305 194.989C340.508 191.816 332.247 187.682 330.038 177.009C325.235 154.126 316.398 131.627 303.047 113.359C284.413 87.7837 255.501 68.9385 223.995 66.4387C190.761 63.8427 158.679 78.938 125.445 81.4378C92.2107 83.8416 58.4001 73.2652 32.754 52.401C28.1434 48.6512 21.3237 48.4589 16.6171 52.2087C12.0066 55.8623 9.79734 61.7274 8.06839 67.4002C-5.45462e-05 93.2641 -3.1698 121.916 6.8197 147.107C16.8092 172.298 42.4553 192.489 69.3501 189.413C97.5897 200.374 129.863 201.912 158.679 192.778C159.736 205.085 162.906 245.66 167.228 266.908C167.036 266.908 166.844 266.908 166.652 266.908C167.036 267.678 167.42 268.543 167.708 269.312C168.669 273.735 169.725 277.1 170.878 278.927C171.935 280.658 172.703 281.908 173.279 282.869C173.087 282.388 173.279 282.196 174.336 283.061C190.857 315.656 214.582 350.846 241.957 371.326C304.007 417.669 382.098 433.053 453.178 408.439C456.539 410.939 459.997 413.15 463.455 415.169C487.853 429.399 514.075 441.226 541.931 446.225C569.786 451.225 599.37 449.206 624.824 436.995C632.316 433.341 640.097 428.726 648.357 429.496C656.041 430.169 662.477 435.264 668.912 439.399C691.389 453.725 719.821 458.34 745.755 451.802C755.072 449.398 748.252 435.841 742.585 428.246Z" fill="#D9BBA2"/>
<path d="M54.7501 308.733C52.9251 304.118 45.529 302.676 41.2066 302.676C34.8671 302.676 28.8158 305.56 24.1092 309.406C24.4934 310.656 24.9737 311.81 25.55 312.867C25.8382 312.867 26.0303 312.771 26.3184 312.579C31.025 309.502 35.8277 306.81 41.6869 306.81C46.2014 306.81 49.4672 309.406 53.6935 310.175C54.654 310.464 54.9422 309.406 54.7501 308.733Z" fill="#B8896A"/>
<path d="M50.5238 296.138C51.1962 296.138 51.6764 295.368 51.1001 294.791C44.8567 287.773 30.7369 290.849 23.8211 296.426C23.3408 297.964 23.0527 299.599 22.9566 301.233C23.1487 301.233 23.3408 301.137 23.5329 301.041C27.5672 298.349 31.3132 295.945 36.308 295.176C41.2067 294.311 45.6251 296.234 50.5238 296.138Z" fill="#B8896A"/>
<path d="M595.336 257.197C595.336 257.101 595.24 256.717 595.144 256.14C591.782 236.237 582.273 217.68 567.192 204.316C551.92 190.759 533.478 181.336 513.307 179.317C494.865 177.49 476.326 181.913 458.653 187.49C440.979 193.066 423.497 199.797 405.151 202.777C386.805 205.758 367.114 204.604 351.073 195.182C350.785 194.989 350.497 194.797 350.305 194.701C349.825 195.182 349.441 195.758 348.96 196.239C349.441 198.258 349.729 200.277 350.017 202.393C350.113 202.297 350.209 202.2 350.305 202.008C350.593 202.2 350.881 202.393 351.073 202.489C367.114 211.911 386.805 213.065 405.151 210.085C423.497 207.104 440.883 200.374 458.653 194.797C476.326 189.22 494.865 184.798 513.307 186.624C533.478 188.643 551.92 198.066 567.192 211.623C582.273 224.988 591.878 243.544 595.144 263.447C595.24 264.024 595.336 264.312 595.336 264.505C595.624 266.812 595.816 269.12 596.008 271.235C596.2 266.812 596.104 262.197 595.336 257.197Z" fill="#DFC5AD"/>
<path d="M458.653 187.49C440.979 193.066 423.497 199.797 405.151 202.777C393.145 204.7 380.562 204.796 368.747 202.104C370.284 206.912 374.126 211.623 377.488 214.507C385.748 221.815 396.41 226.045 403.806 234.122C409.666 240.468 413.028 248.64 417.83 255.755C427.243 269.601 442.035 279.119 457.884 284.119C473.829 289.119 490.734 289.888 507.351 288.638C520.799 287.676 534.727 285.177 545.677 277.292C556.723 269.504 564.023 255.082 560.085 242.198C556.627 230.853 545.581 223.065 541.931 211.719C539.241 203.45 540.778 194.316 538.665 186.047C530.596 182.586 522.048 180.182 513.211 179.317C494.865 177.49 476.422 182.009 458.653 187.49Z" fill="#C85E38"/>
<path d="M181.444 3.05176e-05C195.083 6.34583 206.61 16.9222 214.102 29.9022C221.594 42.8823 224.956 58.266 223.611 73.1691C216.599 70.7654 209.107 70.2846 201.711 69.227C202.479 44.5168 195.948 19.9989 181.444 3.05176e-05Z" fill="#C85E38"/>
<path d="M177.025 72.496C171.358 48.8435 173.76 23.6526 180.772 0.384613C196.044 19.7105 203.728 44.9975 201.807 69.5154C193.45 71.6307 185.574 72.8806 177.025 72.496Z" fill="#E5CFC1"/>
<path d="M228.798 73.1691C195.564 70.5731 163.482 85.6684 130.248 88.1682C97.1095 90.6681 63.2028 79.9956 37.4606 58.9391C32.754 55.0931 26.7027 55.0931 21.9 58.7468C17.0974 62.4004 14.7921 68.3616 13.0631 74.1305C5.09076 99.9945 1.92101 128.647 11.8145 153.838C13.5434 158.068 15.6566 162.203 18.154 166.145C13.3513 160.376 9.50919 153.934 6.72366 147.011C-3.1698 121.916 -4.93395e-05 93.2641 7.97234 67.4002C9.79735 61.6312 12.0066 55.5739 16.8092 52.0164C21.6119 48.3627 27.6632 48.3627 32.3698 52.2087C58.112 73.2652 92.0187 83.9377 125.157 81.4378C158.487 78.8418 190.569 63.7465 223.707 66.3425C255.213 68.8424 284.125 87.6875 302.759 113.263C303.335 114.032 303.719 114.801 304.296 115.474C285.661 92.3026 258.382 75.5728 228.798 73.1691Z" fill="#DFC5AD"/>
<path d="M237.923 228.257C224.38 235.564 209.491 241.237 194.123 240.852C178.754 240.468 168.381 237.679 161.177 224.026C160.312 222.392 159.352 200.277 158.679 192.682C136.299 199.797 111.806 200.47 88.7529 195.182C88.7529 193.259 92.9792 193.739 95.3805 193.835C113.919 194.797 132.553 191.047 149.458 183.355C158.968 179.029 167.804 173.452 175.777 166.625C188.456 155.761 198.733 142.3 211.701 131.724C224.572 121.147 241.669 113.455 257.806 117.494C273.463 121.436 285.181 136.146 287.775 152.203C290.368 168.164 284.893 184.798 275.288 197.778C265.586 210.95 252.139 220.661 237.923 228.257Z" fill="#E5CFC1"/>
<path d="M220.441 150.376C221.978 147.876 225.82 149.03 225.628 152.011C224.572 175.183 217.848 197.681 203.728 216.334C199.406 222.103 194.411 227.584 187.975 230.757C181.54 233.929 173.375 234.506 167.324 230.66C161.945 227.295 158.871 220.853 158.007 214.604C157.142 208.258 157.719 199.124 158.679 192.778C152.244 194.989 199.982 182.682 220.441 150.376Z" fill="#472B3C"/>
<path d="M216.984 149.896C219.577 147.492 223.995 148.069 226.781 149.896C229.663 151.722 231.968 155.857 229.759 159.03C229.086 160.087 227.645 159.799 226.877 158.934C225.532 157.395 225.34 155.376 223.899 153.934C222.17 152.299 220.153 152.395 217.944 152.395C216.599 152.395 215.927 150.857 216.984 149.896Z" fill="#472B3C"/>
<path d="M29.2001 142.108C36.5961 160.857 52.9251 180.567 74.3449 191.239C43.704 194.509 16.2329 170.952 6.81972 147.107C-1.15267 126.916 -0.672405 104.61 3.93813 83.1685C4.4184 83.0724 4.89866 82.9762 5.37893 82.9762C22.7645 82.5916 24.3974 129.993 29.2001 142.108Z" fill="#CCA78C"/>
<path d="M69.3502 189.413C68.3896 189.509 70.3107 189.413 69.3502 189.413C41.6869 174.125 18.3461 139.127 18.4421 107.783C18.4421 106.821 21.4198 105.763 21.804 106.917C26.0303 122.301 28.3356 139.8 36.308 154.03C45.7211 170.664 59.3607 182.875 76.0739 191.816C73.7686 191.047 71.5594 190.278 69.3502 189.413Z" fill="#B8896A"/>
<path d="M76.2659 75.6689C70.983 88.7451 60.033 99.8022 47.258 105.956C32.85 112.878 16.6171 114.609 0.57625 113.359C0.384144 97.8792 3.36178 82.1109 7.97232 67.304C9.79733 61.5351 12.0065 55.4777 16.8092 51.9202C21.6118 48.2666 27.6632 48.2666 32.3698 52.1125C45.3369 62.6889 60.3212 70.6692 76.2659 75.6689Z" fill="#472B3C"/>
<path d="M61.5699 123.647C66.0844 124.32 65.0278 131.339 60.5133 130.666C56.0948 129.897 57.1514 122.878 61.5699 123.647Z" fill="#472B3C"/>
<path d="M69.8304 135.569C74.3449 136.242 73.2883 143.261 68.7738 142.588C64.2593 141.915 65.3159 134.896 69.8304 135.569Z" fill="#472B3C"/>
<path d="M49.1791 134.512C53.5975 135.185 52.5409 142.011 48.1225 141.338C43.8001 140.665 44.7606 133.839 49.1791 134.512Z" fill="#472B3C"/>
<path d="M38.229 56.6315C43.0317 60.0929 48.0264 63.2658 53.2133 65.9579C53.3093 65.9579 53.3093 66.0541 53.4054 66.0541C60.7054 69.9961 68.3896 73.169 76.362 75.6689C75.7857 77.2073 75.0173 78.6495 74.3449 80.0918C72.712 83.1685 38.5172 59.9967 34.3869 57.9776C25.7421 53.747 16.329 54.0355 12.0066 63.6503C4.89866 79.2264 0.768383 96.2447 0.0960127 113.359C-0.384252 101.341 1.92102 88.9374 4.70655 77.3034C6.53156 69.8039 8.16446 55.2854 15.8487 51.2472C21.2277 48.4589 27.6632 48.3627 32.3698 52.2087C34.2908 53.747 36.2119 55.1893 38.229 56.6315Z" fill="#634357"/>
<path d="M227.549 47.7859C225.34 49.9973 223.131 52.1125 220.249 53.6509C217.464 55.1893 214.39 55.5739 211.508 56.8238C210.548 57.2084 210.26 58.7468 211.508 59.0352C218.232 60.6698 226.301 54.9009 229.086 49.0358C229.566 47.9782 228.414 46.9205 227.549 47.7859Z" fill="#C85E38"/>
<path d="M225.724 33.3636C224.764 36.4403 223.803 39.4209 222.17 42.2092C220.633 44.8053 218.328 46.7282 216.791 49.3242C216.119 50.478 217.464 51.4395 218.52 51.0549C224.38 48.5551 228.222 39.8055 228.126 33.7482C228.03 32.3059 226.108 32.1137 225.724 33.3636Z" fill="#C85E38"/>
<path d="M215.639 20.7681C215.735 23.6526 215.351 26.4409 214.486 29.2292C213.718 31.729 212.277 34.0366 211.508 36.4403C211.124 37.7864 212.757 38.5556 213.718 37.6903C218.232 33.5559 218.712 26.0563 217.848 20.3835C217.656 19.1336 215.543 19.5182 215.639 20.7681Z" fill="#C85E38"/>
<path d="M397.371 203.739C395.738 203.931 394.105 204.027 392.568 204.027C391.512 204.123 390.455 204.123 389.399 204.123C388.342 204.123 387.285 204.123 386.133 204.123C384.98 204.123 383.827 204.027 382.771 204.027C382.195 204.027 381.618 203.931 381.042 203.931C378.737 203.739 376.431 203.45 374.126 203.162C373.742 203.066 373.358 203.066 372.973 202.97C371.629 202.777 370.284 202.489 368.939 202.104C369.9 204.893 371.533 207.585 373.454 209.988C382.099 210.854 390.935 210.373 399.58 209.027C417.926 206.046 435.312 199.316 453.082 193.739C470.755 188.163 489.294 183.74 507.736 185.567C519.262 186.72 530.116 190.278 540.202 195.662C540.01 192.393 539.721 189.124 538.953 186.047C535.015 184.317 530.981 182.971 526.85 181.817C526.754 181.817 526.562 181.721 526.466 181.721C524.641 181.24 522.72 180.855 520.895 180.471C520.607 180.375 520.319 180.375 520.031 180.279C517.917 179.894 515.708 179.605 513.499 179.317C495.057 177.49 476.519 181.913 458.845 187.49C441.171 193.066 423.689 199.797 405.343 202.777C403.326 203.066 401.405 203.354 399.388 203.546C398.62 203.643 397.947 203.643 397.371 203.739Z" fill="#C86D47"/>
<path d="M200.751 166.529C182.789 175.471 156.278 181.048 138.22 189.797C132.553 192.489 132.649 194.605 127.366 197.585C153.3 199.989 183.557 186.72 200.751 166.529Z" fill="#E5CFC1"/>
<path d="M302.278 187.394C298.052 185.567 293.057 184.605 287.871 184.605C276.152 184.701 264.626 186.72 252.907 187.49C246.28 187.874 239.46 187.874 232.928 186.913C227.549 186.047 221.114 182.009 215.927 182.201C207.378 182.49 203.632 193.259 203.632 199.316C202.383 199.22 201.039 199.22 199.79 199.412C186.919 201.143 190.953 218.161 202.383 223.545C227.069 235.179 248.873 229.603 276.056 227.103C289.792 225.853 306.217 223.257 312.076 210.854C316.975 199.989 311.692 191.528 302.278 187.394Z" fill="#FB5E5E"/>
<path d="M256.557 386.229C255.213 386.421 254.444 387.094 254.156 388.44C254.06 388.632 254.444 388.729 254.54 388.536C254.732 387.383 255.405 386.613 256.557 386.229C256.653 386.229 256.653 386.325 256.557 386.229Z" fill="#B8896A"/>
<path d="M701.186 412.189C699.169 409.208 696.672 408.247 693.502 406.516C688.411 403.824 683.897 400.363 679.863 396.228C674.195 390.363 670.161 383.825 661.228 383.825C659.884 383.825 658.539 385.075 658.635 386.421C658.731 388.632 659.403 390.652 660.556 392.574C660.556 392.959 660.652 393.344 660.844 393.632C667.856 404.978 685.146 420.65 699.65 416.035C701.09 415.554 702.147 413.631 701.186 412.189Z" fill="#B8896A"/>
<path d="M738.551 448.437C739.415 445.072 735.477 441.13 732.692 439.88C730.482 438.918 727.793 439.976 727.313 442.476C726.928 444.687 728.369 446.995 729.522 448.821C730.674 450.552 732.211 452.475 734.42 452.667C734.517 452.763 734.709 452.86 734.805 452.86C736.342 453.533 738.455 452.763 738.359 450.841C738.359 450.648 738.263 450.456 738.263 450.264C738.551 449.783 738.647 449.11 738.551 448.437Z" fill="#B8896A"/>
<path d="M746.715 443.245C745.947 438.822 743.45 435.168 739.896 432.476C738.359 431.322 736.342 432.668 735.861 434.111C734.613 437.86 736.149 441.706 739.223 444.014C739.607 444.302 740.088 444.495 740.472 444.495C741.24 445.168 742.105 445.745 742.873 446.129C744.986 447.379 747.1 445.36 746.715 443.245Z" fill="#B8896A"/>
<path d="M648.837 421.804C644.995 415.842 643.939 409.112 641.249 402.766C640.961 402.093 639.809 402.286 639.712 402.959C637.311 411.708 641.634 421.9 648.357 429.496C648.453 429.496 648.549 429.496 648.645 429.496C653.256 429.88 657.386 431.899 661.42 434.303C656.522 430.649 652.103 426.803 648.837 421.804Z" fill="#B8896A"/>
<path d="M455.867 407.381C443.092 389.402 421.48 369.307 423.113 351.423C393.529 371.037 353.859 374.402 321.393 360.076C317.743 358.442 313.997 356.423 311.788 353.057C309.675 349.692 309.771 344.5 313.132 342.289C300.357 353.731 281.147 357.576 264.914 352C248.681 346.423 236.002 331.52 233.024 314.598C231.295 304.695 233.793 292.772 242.726 288.446C228.03 293.061 209.78 298.734 195.179 294.215C187.783 291.907 179.523 284.984 169.725 274.023C186.247 308.925 211.893 349.115 241.861 371.422C306.505 419.304 382.675 436.226 455.867 407.381Z" fill="#D2B196"/>
<path d="M463.359 411.227C454.33 399.593 443.764 389.498 435.504 377.095C427.339 364.691 422.633 351.519 418.118 337.481C417.83 336.712 416.485 336.808 416.581 337.674C418.599 365.845 439.826 396.324 461.726 413.15C463.071 414.208 464.224 412.285 463.359 411.227Z" fill="#B8896A"/>
<path d="M260.976 292.195C257.71 291.907 253.484 291.811 250.314 292.868C248.969 293.349 248.585 295.561 250.314 295.849C253.772 296.426 257.998 295.657 261.36 294.791C262.801 294.503 262.513 292.292 260.976 292.195Z" fill="#D2B196"/>
<path d="M266.931 305.368C265.01 305.272 263.185 305.079 261.264 304.983C259.535 304.887 257.902 304.695 256.269 305.368C254.828 305.945 255.405 307.868 256.557 308.252C258.19 308.829 260.111 308.445 261.84 308.348C263.569 308.252 265.298 307.964 267.123 307.771C268.66 307.579 268.276 305.464 266.931 305.368Z" fill="#D2B196"/>
<path d="M315.63 342.097C323.122 319.502 297.86 297.676 276.728 294.311C253.195 290.561 228.99 301.137 210.644 314.021C193.739 325.944 179.331 340.847 163.194 353.827C147.057 366.711 128.423 377.864 107.483 379.979C101.72 380.556 95.8608 380.46 90.2897 381.614C84.6226 382.767 79.0515 385.46 76.1699 390.363C71.7515 397.767 75.1134 408.151 81.8371 414.208C88.5608 420.265 101.816 426.515 110.653 425.361C144.079 420.938 179.715 423.823 212.469 414.208C246.952 404.016 282.299 384.786 305.736 358.057C309.867 353.346 313.613 348.25 315.534 342.385C315.63 342.193 315.63 342.097 315.63 342.097Z" fill="#D9BBA2"/>
<path d="M76.266 390.267C79.1475 385.46 84.7186 382.767 90.3857 381.517C96.0529 380.364 101.912 380.46 107.579 379.883C128.519 377.768 147.153 366.614 163.29 353.731C179.427 340.847 193.739 325.847 210.74 313.925C229.086 301.041 253.388 290.561 276.824 294.215C281.435 294.984 286.334 296.618 290.944 298.926C285.757 295.849 280.186 293.638 274.903 292.58C251.563 288.157 226.973 297.964 208.243 310.271C190.953 321.617 176.161 336.135 159.64 348.635C143.119 361.038 124.196 371.614 103.161 373.153C97.3976 373.537 91.5384 373.249 85.8713 374.306C80.2041 375.364 74.537 377.864 71.5594 382.575C66.9488 389.786 69.9265 400.074 76.266 406.324C73.7686 401.132 73.3844 395.074 76.266 390.267Z" fill="#DFC5AD"/>
<path d="M102.392 394.113C99.5108 390.075 92.0187 390.363 87.8884 391.421C81.741 392.959 76.5541 397.094 72.9041 401.997C73.5765 403.055 74.3449 404.112 75.2094 405.074C75.4976 404.978 75.6897 404.882 75.8818 404.689C79.7239 400.651 83.7581 396.805 89.4252 395.459C93.8437 394.401 97.5897 396.132 101.816 395.94C102.681 395.844 102.777 394.69 102.392 394.113Z" fill="#B8896A"/>
<path d="M95.2845 382.864C95.9568 382.671 96.1489 381.806 95.5726 381.421C87.8884 376.037 74.8252 382.479 69.4462 389.402C69.3502 391.036 69.4462 392.671 69.7344 394.305C69.9265 394.209 70.0225 394.113 70.2146 393.921C73.4804 390.267 76.5541 387.094 81.2607 385.171C85.7752 383.248 90.5779 384.113 95.2845 382.864Z" fill="#B8896A"/>
<path d="M233.793 311.714C232.448 312.579 231.103 313.252 229.663 314.021C228.318 314.694 226.973 315.175 226.109 316.329C225.244 317.386 226.301 318.829 227.549 319.021C230.431 319.405 233.889 316.617 236.002 314.983C237.731 313.637 235.618 310.56 233.793 311.714Z" fill="#D2B196"/>
<path d="M234.657 325.847C230.239 326.136 224.956 328.636 222.266 332.001C221.786 332.674 222.555 333.732 223.323 333.539C225.532 332.962 227.261 332.097 229.278 331.136C231.295 330.078 233.601 329.405 235.522 328.251C236.674 327.482 236.098 325.751 234.657 325.847Z" fill="#D2B196"/>
<path d="M222.266 308.348C218.52 309.118 214.102 310.271 211.412 312.964C210.356 313.925 211.508 315.56 212.853 315.079C214.582 314.406 216.119 313.348 217.848 312.483C219.577 311.617 221.21 310.848 222.939 310.175C223.899 309.694 223.323 308.156 222.266 308.348Z" fill="#D2B196"/>
<path d="M208.339 325.655C207.186 326.328 205.937 327.001 204.689 327.482C203.44 327.963 202.095 327.963 201.039 328.924C200.27 329.597 200.27 331.039 201.231 331.616C204.401 333.443 208.723 330.655 210.548 328.251C211.701 326.809 209.876 324.79 208.339 325.655Z" fill="#D2B196"/>
<path d="M208.147 339.693C205.937 339.981 203.632 340.847 201.519 341.616C199.406 342.289 196.908 342.77 195.372 344.404C194.507 345.269 194.987 346.808 196.332 347C198.541 347.192 200.558 346.135 202.576 345.366C204.785 344.5 207.186 343.731 209.203 342.481C210.356 341.52 209.779 339.501 208.147 339.693Z" fill="#D2B196"/>
<path d="M186.823 334.501C187.495 333.347 185.862 331.616 184.806 332.77C183.749 333.924 182.597 334.982 181.348 335.943C180.099 336.904 178.658 337.578 177.602 338.731C176.737 339.693 177.41 341.135 178.754 341.039C182.308 340.75 185.286 337.193 186.823 334.501Z" fill="#D2B196"/>
<path d="M181.252 345.077C180.099 345.846 179.043 346.712 177.89 347.385C176.737 348.058 175.393 348.635 174.528 349.596C173.76 350.365 174.336 351.808 175.585 351.615C178.37 351.231 181.156 348.442 182.597 346.135C183.077 345.366 182.02 344.596 181.252 345.077Z" fill="#D2B196"/>
<path d="M189.32 357.48C189.32 357 188.936 356.423 188.456 356.23C186.439 355.653 184.614 357.48 182.789 358.153C180.676 359.019 178.37 359.499 176.353 360.461C175.585 360.845 175.489 362.288 176.545 362.576C179.043 363.153 181.636 362.576 183.941 361.711C185.766 360.845 189.128 359.788 189.32 357.48Z" fill="#D2B196"/>
<path d="M156.374 362.192C154.645 362.961 152.82 363.634 151.091 364.403C149.458 365.076 147.537 365.557 146.289 366.807C145.52 367.576 145.808 369.403 147.249 369.307C149.074 369.21 150.611 368.345 152.34 367.576C154.165 366.711 156.086 365.941 157.911 365.076C159.736 364.307 158.199 361.422 156.374 362.192Z" fill="#D2B196"/>
<path d="M315.438 334.116C306.889 342 301.318 353.442 293.442 362.095C284.989 371.422 274.423 377.095 264.722 384.883C263.569 385.748 265.01 387.479 266.259 386.806C277.977 380.556 288.447 373.441 297.476 363.73C304.872 355.75 313.901 345.75 317.935 335.558C318.511 334.02 316.494 333.155 315.438 334.116Z" fill="#B8896A"/>
<path d="M252.235 287.003C232.544 289.599 208.147 302.195 195.468 317.771C194.795 318.636 195.66 319.982 196.716 319.406C205.937 314.117 214.102 307.195 223.611 302.099C233.024 297.099 243.11 293.638 252.715 289.023C253.676 288.542 253.292 286.907 252.235 287.003Z" fill="#B8896A"/>
<path d="M435.12 349.981C434.159 348.827 432.334 350.077 432.718 351.423C433.487 354.307 435.024 358.153 437.329 360.172C438.097 360.942 439.922 360.461 439.73 359.211C439.25 355.942 437.137 352.384 435.12 349.981Z" fill="#D2B196"/>
<path d="M461.438 359.019C459.805 357.096 457.884 355.173 455.483 354.211C454.33 353.731 453.466 355.269 453.946 356.134C455.099 358.153 456.828 359.788 458.268 361.615C459.613 363.345 460.958 365.461 462.783 366.711C463.551 367.191 464.896 366.518 464.8 365.557C464.608 363.057 463.071 360.942 461.438 359.019Z" fill="#D2B196"/>
<path d="M457.212 378.921C455.483 376.037 452.697 373.729 450.104 371.614C449.143 370.749 447.222 371.903 448.087 373.153C450.104 375.941 452.313 379.018 455.195 380.941C456.54 381.614 457.98 380.075 457.212 378.921Z" fill="#D2B196"/>
<path d="M478.92 384.402C478.247 382.575 476.903 381.421 475.654 380.075C474.309 378.633 473.061 377.191 471.428 376.133C469.891 375.172 468.354 376.998 469.122 378.441C469.891 380.075 471.236 381.421 472.388 382.767C473.541 384.113 474.694 385.748 476.326 386.517C477.575 387.094 479.496 386.036 478.92 384.402Z" fill="#D2B196"/>
<path d="M470.467 402.478C469.411 400.651 467.682 399.305 466.241 397.863C464.704 396.324 463.167 394.69 461.726 393.055C460.478 391.613 458.076 393.44 459.037 395.171C461.246 398.824 464.32 403.535 468.642 404.978C469.987 405.458 471.14 403.728 470.467 402.478Z" fill="#D2B196"/>
<path d="M494.672 403.055C493.808 401.132 491.983 400.074 490.35 398.92C488.525 397.574 486.604 396.42 484.587 395.17C483.05 394.209 481.321 396.42 482.666 397.67C484.299 399.209 486.028 400.651 487.853 402.093C489.39 403.343 491.022 404.785 493.04 405.17C494.288 405.458 495.249 404.305 494.672 403.055Z" fill="#D2B196"/>
<path d="M496.786 417.862C495.153 416.323 492.751 415.65 490.83 414.593C488.813 413.535 486.892 412.189 484.779 411.323C483.146 410.65 482.378 412.958 483.242 414.016C484.683 415.842 486.988 417.285 489.005 418.342C490.926 419.4 493.424 420.65 495.633 420.361C496.882 420.361 497.842 418.823 496.786 417.862Z" fill="#D2B196"/>
<path d="M520.511 415.458C518.302 412.285 513.499 410.554 510.041 409.304C507.736 408.439 506.775 411.708 508.504 412.958C511.29 414.977 515.516 417.958 519.07 418.054C520.223 418.054 521.279 416.516 520.511 415.458Z" fill="#D2B196"/>
<path d="M527.426 432.188C526.082 431.034 524.257 430.457 522.528 429.88C520.607 429.207 518.59 428.438 516.572 427.957C514.94 427.573 513.787 429.976 515.42 430.745C517.149 431.611 518.974 432.284 520.799 433.053C522.528 433.726 524.449 434.688 526.37 434.784C527.523 434.784 528.387 433.053 527.426 432.188Z" fill="#D2B196"/>
<path d="M557.587 423.438C554.898 422.477 552.016 422.477 549.231 421.708C546.445 421.035 543.852 419.977 541.066 419.304C540.106 419.112 539.241 420.265 540.106 421.035C544.236 424.784 552.016 427.476 557.587 426.419C559.22 426.227 558.932 423.919 557.587 423.438Z" fill="#D2B196"/>
<path d="M511.866 395.651C510.137 394.017 508.12 392.767 506.295 391.228C504.566 389.786 503.125 387.959 501.396 386.613C500.628 386.036 499.283 386.998 499.667 387.959C501.396 392.19 506.391 396.42 510.617 397.767C511.77 398.247 512.73 396.517 511.866 395.651Z" fill="#D2B196"/>
<path d="M562.582 437.38C559.893 436.514 557.395 436.226 554.514 435.937C551.824 435.745 549.135 435.264 546.445 435.841C545.485 436.034 545.1 437.668 546.157 438.149C550.671 440.072 557.395 440.456 562.198 439.88C563.639 439.783 564.119 437.86 562.582 437.38Z" fill="#D2B196"/>
<path d="M590.149 428.053C587.652 428.342 585.346 428.919 582.849 428.919C582.081 428.919 581.889 430.072 582.657 430.169C585.346 430.745 588.132 430.842 590.629 429.592C591.206 429.207 590.918 427.957 590.149 428.053Z" fill="#D2B196"/>
<path d="M323.986 191.72C323.026 190.182 322.354 188.547 321.297 187.105C320.144 185.374 316.975 185.855 317.071 188.259C317.263 191.528 319.952 197.585 323.506 198.162C324.659 198.354 326.292 197.585 326.1 196.143C325.908 194.412 324.947 193.259 323.986 191.72Z" fill="#D2B196"/>
<path d="M349.44 207.392C348.192 206.046 346.175 205.469 344.542 204.7C342.717 203.835 340.988 202.681 339.355 201.431C337.434 199.797 334.84 202.297 336.569 204.22C339.259 207.2 344.35 211.431 348.672 210.181C349.921 209.892 350.305 208.354 349.44 207.392Z" fill="#D2B196"/>
<path d="M333.496 220.276C331.479 216.815 327.06 213.834 323.602 212.104C321.681 211.142 319.856 213.45 321.297 215.084C323.89 218.065 327.925 221.526 331.767 222.584C333.112 222.968 334.264 221.43 333.496 220.276Z" fill="#D2B196"/>
<path d="M375.279 223.738C372.301 221.815 367.787 222.007 364.329 221.719C362.6 221.622 362.312 224.218 363.944 224.699C367.306 225.661 371.437 227.295 374.991 226.526C376.335 226.334 376.335 224.411 375.279 223.738Z" fill="#D2B196"/>
<path d="M353.667 227.487C352.802 226.334 351.362 225.468 350.209 224.699C348.864 223.738 347.712 222.584 346.463 221.43C345.118 220.084 342.813 221.815 343.773 223.449C345.502 226.43 348.768 229.891 352.514 230.084C353.955 230.18 354.339 228.449 353.667 227.487Z" fill="#D2B196"/>
<path d="M384.404 237.872C379.985 236.91 375.567 237.006 371.244 235.564C369.804 235.083 369.323 237.198 370.668 237.775C374.894 239.41 379.889 240.852 384.404 239.794C385.268 239.506 385.364 238.064 384.404 237.872Z" fill="#D2B196"/>
<path d="M365.097 205.95C364.041 205.277 362.792 205.181 361.639 204.7C360.198 204.22 359.142 203.546 358.085 202.489C356.933 201.335 354.819 202.873 355.684 204.316C357.509 207.2 361.543 210.469 365.097 208.642C366.154 208.065 366.058 206.527 365.097 205.95Z" fill="#D2B196"/>
<path d="M318.896 162.106C318.127 160.376 317.359 158.549 316.014 157.203C315.15 156.338 313.805 157.011 313.805 158.164C313.709 160.087 314.477 162.106 315.15 163.837C315.822 165.664 316.302 167.587 317.647 168.933C318.8 170.087 320.721 169.221 320.817 167.587C320.721 165.664 319.664 163.837 318.896 162.106Z" fill="#D2B196"/>
<path d="M285.181 203.739C257.998 203.258 227.741 213.738 204.689 195.855C203.44 194.893 201.615 196.431 202.864 197.681C211.701 206.623 220.153 210.758 232.736 210.854C250.122 210.95 268.372 209.604 285.661 207.2C287.678 206.912 287.102 203.739 285.181 203.739Z" fill="#EE5652"/>
<path d="M235.426 130.762C237.731 115.859 228.606 101.244 216.311 93.5526C212.373 91.0527 182.693 79.3226 182.116 87.8798C182.597 80.8609 182.597 75.4766 175.777 74.1305C158.775 70.9576 140.621 74.9959 126.598 85.0915C121.219 89.0336 123.62 96.9177 126.406 102.975C129.191 109.032 134.954 113.648 141.486 114.994C141.102 130.377 150.323 145.184 163.578 152.876C176.833 160.568 192.874 162.203 208.147 160.472C222.362 158.837 233.216 144.8 235.426 130.762Z" fill="#E90000"/>
<path d="M173.087 113.167C174.816 111.244 176.929 109.706 179.331 108.648C181.348 107.686 183.653 107.109 185.862 107.59C188.072 107.975 190.185 109.513 190.761 111.628C191.241 113.359 190.761 115.282 189.993 117.013C187.591 122.493 180.868 130.377 174.24 130.281C171.55 130.281 169.149 128.743 168.381 126.147C167.9 124.416 168.189 122.493 168.669 120.763C169.629 117.878 171.07 115.282 173.087 113.167Z" fill="#472B3C"/>
<path d="M148.402 91.8219C150.035 90.0912 151.956 88.649 154.069 87.6875C155.894 86.8222 158.007 86.3414 160.024 86.726C162.041 87.1106 163.962 88.4567 164.443 90.3797C164.923 92.0142 164.443 93.7449 163.77 95.2832C161.657 100.283 155.51 107.398 149.458 107.302C147.057 107.302 144.848 105.956 144.175 103.552C143.791 101.917 143.983 100.283 144.464 98.6484C145.328 96.0524 146.673 93.7449 148.402 91.8219Z" fill="#472B3C"/>
<path d="M194.507 95.1871C196.524 96.3409 198.157 98.0716 198.829 100.283C200.655 103.744 201.423 108.071 198.061 109.609C195.083 111.052 192.778 108.071 191.626 105.667C190.377 103.071 190.089 100.283 190.377 97.3985C190.569 95.6678 192.778 94.2256 194.507 95.1871Z" fill="#472B3C"/>
<path d="M176.161 80.284C174.528 78.5534 172.511 77.4957 170.206 77.3996C166.46 76.5342 162.041 76.8227 161.369 80.4763C160.696 83.7454 164.154 85.1876 166.748 85.7645C169.533 86.3414 172.415 85.9568 175.008 84.8992C176.641 84.2261 177.506 81.7263 176.161 80.284Z" fill="#472B3C"/>
<path d="M186.919 282.581C180.676 282.581 174.528 282.196 168.285 281.523C167.036 281.427 166.172 280.273 166.364 279.119C166.46 277.869 167.612 277.1 168.765 277.196C202.191 280.946 236.962 274.12 266.451 257.87C295.939 241.621 320.432 216.046 335.225 185.759C335.801 184.701 337.05 184.221 338.202 184.701C339.259 185.278 339.739 186.528 339.259 187.682C324.082 218.738 299.013 245.083 268.66 261.716C243.686 275.369 215.255 282.581 186.919 282.581Z" fill="#E90000"/>
<path d="M649.702 286.811C649.702 286.811 649.606 286.811 649.606 286.715C647.397 285.561 645.091 284.311 643.843 282.196C641.249 277.773 645.764 273.927 648.741 271.235C657.386 263.255 661.901 250.948 660.652 239.218C657.386 210.565 629.243 209.027 611.857 192.682C607.727 188.836 604.461 183.836 604.077 178.163C603.404 168.645 626.553 142.684 613.586 137.108C575.549 120.763 589.861 116.532 601.772 100.956C580.16 103.456 558.452 106.725 538.088 114.321C514.844 123.07 493.904 137.108 473.157 150.857C452.409 164.606 431.182 178.259 407.553 185.951C383.923 193.739 357.221 195.085 334.744 184.413C318.704 223.738 286.814 254.697 247.336 270.177C292.097 291.619 347.519 292.772 396.795 286.523C446.07 280.273 496.305 271.043 545.004 280.946C570.074 286.042 593.799 296.041 618.869 301.233C632.028 303.926 645.668 305.175 659.019 303.637C665.839 302.868 674.676 302.195 680.439 298.445C671.41 293.253 659.403 291.715 649.702 286.811Z" fill="#E90000"/>
<path d="M351.169 202.489C351.169 202.489 348.288 214.796 337.242 230.083C326.1 245.371 306.793 256.62 306.793 256.62L403.806 226.814L351.169 202.489Z" fill="#F9B233"/>
<path d="M535.207 148.165C555.282 138.646 576.798 129.801 598.602 129.993C584.098 121.436 588.324 116.436 595.72 108.359C595.912 107.686 596.393 106.821 597.449 105.86C548.942 118.743 512.73 163.741 463.167 171.721C488.621 171.048 512.154 159.03 535.207 148.165Z" fill="#D80000"/>
<path d="M596.488 286.33C615.411 291.138 635.966 292.965 654.889 289.119C653.16 288.446 651.431 287.773 649.798 286.907C649.798 286.907 649.702 286.907 649.702 286.811C647.493 285.657 645.187 284.407 643.939 282.292C641.345 277.869 645.86 274.023 648.837 271.331C653.064 267.485 656.233 262.582 658.251 257.294C658.251 256.909 658.154 256.524 658.251 256.14C656.329 261.62 650.95 265.274 645.283 266.62C639.616 267.966 633.757 267.389 627.994 266.62C593.319 262.197 559.22 253.832 524.641 248.832C490.062 243.929 454.234 242.487 420.616 252.005C451.449 248.063 483.146 250.179 513.115 258.447C541.354 266.139 568.057 279.119 596.488 286.33Z" fill="#D80000"/>
<path d="M560.949 203.931C583.233 204.316 605.71 205.566 627.802 203.739C622.135 200.662 616.564 197.297 611.857 192.778C607.727 188.932 604.461 183.932 604.077 178.259C603.789 174.029 608.015 166.722 611.857 159.414C605.806 161.53 600.235 167.395 595.144 170.279C585.827 175.471 575.165 178.067 564.791 180.182C509.465 191.239 450.296 190.278 399.964 215.757C453.081 206.816 507.063 202.873 560.949 203.931Z" fill="#D80000"/>
</svg>
