<svg width="119" height="68" viewBox="0 0 119 68" fill="none" xmlns="http://www.w3.org/2000/svg">
<path d="M6.06798 0C9.10197 0 11.7989 2.38 11.7989 5.78C11.7989 8.84 9.10197 11.56 6.06798 11.56C2.69687 11.56 0.337097 8.84 0.337097 5.78C0.674208 2.72 3.03398 0 6.06798 0Z" fill="#F22020"/>
<path d="M5.73088 67.9999C2.35977 67.9999 0 65.2799 0 62.2199C0 59.1599 2.35977 56.4399 5.73088 56.4399C8.76487 56.4399 11.4618 59.1599 11.4618 62.2199C11.4618 65.6199 8.76487 67.9999 5.73088 67.9999Z" fill="#F22020"/>
<path d="M0.337082 42.8399C0.337082 39.7799 3.03397 37.3999 6.40507 37.3999C9.43906 37.7399 12.1359 40.4599 11.7988 43.5199C11.4617 46.5799 8.76484 48.9599 5.73085 48.9599C2.35975 48.9599 -2.86102e-05 46.2399 0.337082 42.8399Z" fill="#F22020"/>
<path d="M6.06798 30.2602C2.69687 30.2602 0.337097 27.5402 0.337097 24.4802C0.337097 21.4202 2.69687 18.7002 6.06798 18.7002C9.10197 18.7002 11.7989 21.4202 11.7989 24.4802C11.7989 27.8802 9.10197 30.2602 6.06798 30.2602Z" fill="#F22020"/>
<path d="M30.0028 5.78018C30.0028 8.84018 27.643 11.2202 24.609 11.2202C21.575 11.2202 19.2153 8.50018 19.2153 5.78018C19.2153 3.06018 21.575 0.680176 24.609 0.680176C27.643 0.680176 30.0028 3.06018 30.0028 5.78018Z" fill="#F22020"/>
<path d="M30.0029 24.8199C30.0029 27.8799 27.6431 30.2599 24.6091 29.9199C21.9122 29.9199 19.5524 27.5399 19.5524 24.8199C19.5524 22.0999 21.9122 19.3799 24.9462 19.3799C27.6431 19.3799 30.0029 21.7599 30.0029 24.8199Z" fill="#F22020"/>
<path d="M29.6657 43.5201C29.6657 46.5801 27.3059 48.9601 24.2719 48.9601C21.2379 48.9601 18.8782 46.5801 18.8782 43.5201C18.8782 40.8001 21.2379 38.4201 23.9348 38.4201C27.3059 38.0801 29.6657 40.4601 29.6657 43.5201Z" fill="#F22020"/>
<path d="M29.6657 62.2198C29.6657 65.2798 27.3059 67.6598 24.2719 67.6598C21.2379 67.6598 18.8782 65.2798 18.8782 62.2198C18.8782 59.4998 21.2379 57.1198 23.9348 56.7798C26.9688 56.7798 29.6657 59.1598 29.6657 62.2198Z" fill="#F22020"/>
<path d="M43.4872 1.35986C46.1841 1.35986 48.2068 3.39986 48.2068 6.11986C48.2068 8.83986 46.1841 10.8799 43.4872 10.8799C40.7904 10.8799 38.7677 8.49986 38.7677 6.11986C38.7677 3.39986 40.7904 1.35986 43.4872 1.35986Z" fill="#F22020"/>
<path d="M47.8697 24.8201C47.8697 27.5401 45.847 29.5801 43.1502 29.5801C40.4533 29.5801 38.4306 27.5401 38.4306 24.8201C38.4306 22.1001 40.4533 20.0601 43.1502 20.0601C45.847 20.0601 47.8697 22.1001 47.8697 24.8201Z" fill="#F22020"/>
<path d="M47.8697 43.5198C47.8697 46.2398 45.847 48.2798 43.1502 48.2798C40.4533 48.2798 38.4306 46.2398 38.4306 43.5198C38.4306 40.7998 40.4533 38.7598 43.1502 38.7598C45.847 38.7598 47.8697 41.1398 47.8697 43.5198Z" fill="#F22020"/>
<path d="M47.5326 62.56C47.5326 65.28 45.5099 67.32 42.8131 66.98C40.1162 66.98 38.0935 64.6 38.0935 62.22C38.0935 59.5 40.4533 57.46 42.8131 57.46C45.847 57.8 47.8697 59.84 47.5326 62.56Z" fill="#F22020"/>
<path d="M57.3088 62.56C57.3088 60.18 59.3314 58.48 61.3541 58.48C63.7139 58.48 65.3994 60.18 65.3994 62.56C65.3994 64.94 63.3768 66.98 61.017 66.64C58.9943 66.64 57.3088 64.94 57.3088 62.56Z" fill="#F22020"/>
<path d="M57.6459 43.8598C57.6459 41.4798 59.6685 39.7798 61.6912 39.7798C64.051 39.7798 65.7365 41.4798 65.7365 43.8598C65.7365 46.2398 63.7139 48.2798 61.3541 47.9398C59.3314 47.9398 57.6459 45.8998 57.6459 43.8598Z" fill="#F22020"/>
<path d="M66.0736 25.1602C66.0736 27.5402 64.051 29.2402 62.0283 29.2402C59.6685 29.2402 57.6459 27.2002 57.983 24.8202C57.983 22.4402 60.0057 20.7402 62.3654 20.7402C64.051 21.0802 66.0736 22.7802 66.0736 25.1602Z" fill="#F22020"/>
<path d="M66.0736 6.80004C65.7365 9.18004 63.7139 10.88 61.3541 10.54C58.9943 10.2 57.6459 8.16004 57.6459 5.78004C57.983 3.40004 60.0056 2.04004 62.0283 2.04004C64.7252 2.38004 66.4107 4.42004 66.0736 6.80004Z" fill="#F22020"/>
<path d="M83.6034 62.9001C83.6034 64.9401 82.255 66.3001 80.2323 66.3001C78.2096 66.3001 76.8612 64.9401 76.8612 62.9001C76.8612 60.8601 78.5468 59.1601 80.2323 59.5001C81.9179 59.5001 83.6034 60.8601 83.6034 62.9001Z" fill="#F22020"/>
<path d="M76.8612 43.86C76.8612 42.16 78.5468 40.46 80.2323 40.46C82.255 40.46 83.6034 42.16 83.6034 44.2C83.6034 46.24 81.9179 47.6 80.2323 47.26C78.2096 47.26 76.8612 45.9 76.8612 43.86Z" fill="#F22020"/>
<path d="M77.1983 25.1598C77.1983 23.4598 78.5467 21.7598 80.5694 21.7598C82.5921 21.7598 83.9405 23.4598 83.9405 25.1598C83.9405 27.1998 82.255 28.5598 80.5694 28.5598C78.5467 28.5598 77.1983 27.1998 77.1983 25.1598Z" fill="#F22020"/>
<path d="M77.1983 6.46006C77.1983 4.76006 78.5467 3.06006 80.5694 3.06006C82.5921 3.06006 83.9405 4.42006 83.9405 6.12006C83.9405 8.16006 82.5921 9.86006 80.5694 9.86006C78.8839 9.86006 77.1983 8.50006 77.1983 6.46006Z" fill="#F22020"/>
<path d="M101.47 25.5002C101.47 26.8602 100.459 27.8802 99.1105 27.8802C97.7621 27.8802 96.7507 26.8602 96.7507 25.5002C96.7507 24.1402 97.7621 23.1202 99.1105 23.1202C100.459 22.7802 101.47 24.1402 101.47 25.5002Z" fill="#F22020"/>
<path d="M101.47 44.1998C101.47 45.5598 100.459 46.5798 99.1105 46.5798C97.7621 46.5798 96.7507 45.5598 96.7507 44.1998C96.7507 42.8398 98.0992 41.8198 99.1105 41.8198C100.459 41.8198 101.47 42.8398 101.47 44.1998Z" fill="#F22020"/>
<path d="M101.133 62.9C101.133 64.26 100.122 65.28 98.7733 65.28C97.4249 65.28 96.4136 64.26 96.4136 62.9C96.4136 61.54 97.4249 60.52 98.7733 60.52C100.122 60.52 101.133 61.54 101.133 62.9Z" fill="#F22020"/>
<path d="M101.807 6.46008C101.807 7.82008 100.796 8.84008 99.4476 8.84008C98.0992 8.84008 97.0878 7.82008 97.0878 6.46008C97.0878 5.10008 98.0992 4.08008 99.4476 4.08008C100.796 4.08008 101.807 5.10008 101.807 6.46008Z" fill="#F22020"/>
<path d="M118.326 63.2402C118.326 63.9202 117.652 64.2602 117.314 64.2602C116.64 64.2602 116.303 63.5802 116.303 63.2402C116.303 62.5602 116.977 62.2202 117.314 62.2202C117.989 62.2202 118.326 62.5602 118.326 63.2402Z" fill="#F22020"/>
<path d="M117.652 43.1802C118.326 43.1802 118.663 43.5202 118.663 44.2002C118.663 44.8802 118.326 45.2202 117.652 45.2202C116.977 45.2202 116.64 44.8802 116.64 44.2002C116.64 43.8602 116.977 43.1802 117.652 43.1802Z" fill="#F22020"/>
<path d="M118.663 25.84C118.663 26.52 117.989 26.86 117.652 26.86C116.977 26.86 116.64 26.18 116.64 25.5C116.64 24.82 117.314 24.48 117.652 24.48C118.326 24.48 118.663 25.16 118.663 25.84Z" fill="#F22020"/>
<path d="M117.989 5.77979C118.663 5.77979 119 6.45978 119 6.79979C119 7.47979 118.326 7.81978 117.989 7.81978C117.314 7.81978 116.977 7.13979 116.977 6.79979C116.977 6.11978 117.314 5.77979 117.989 5.77979Z" fill="#F22020"/>
</svg>
