<svg width="103" height="68" viewBox="0 0 103 68" fill="none" xmlns="http://www.w3.org/2000/svg">
<path d="M91.2286 5.32028C91.2286 8.3828 93.6778 10.8328 96.7391 10.8328C99.5964 10.8328 102.25 8.17863 102.045 5.32028C102.045 2.46192 99.5964 0.0118978 96.7391 0.0118978C93.4737 -0.192271 91.2286 2.25775 91.2286 5.32028Z" fill="#F26120"/>
<path d="M91.4327 24.308C91.4327 27.3705 93.8818 29.6163 96.9431 29.6163C99.8004 29.6163 102.249 27.1663 102.249 24.308C102.249 21.4496 99.8005 18.7954 96.7391 18.7954C93.6777 18.7954 91.2286 21.4496 91.4327 24.308Z" fill="#F26120"/>
<path d="M91.4326 43.5C91.4326 46.5625 93.8817 49.0125 96.9431 49.0125C100.004 49.0125 102.454 46.5625 102.454 43.5C102.454 40.6416 100.004 38.1916 97.1471 38.1916C94.0858 37.9874 91.4326 40.2333 91.4326 43.5Z" fill="#F26120"/>
<path d="M91.6368 62.4876C91.6368 65.5501 93.8817 68.0001 96.9431 68.0001C100.004 68.0001 102.454 65.5501 102.454 62.4876C102.454 59.6292 100.004 57.1792 97.1471 57.1792C94.2899 57.1792 91.6368 59.425 91.6368 62.4876Z" fill="#F26120"/>
<path d="M77.3504 0.624512C74.6973 0.624512 72.6562 2.87036 72.6562 5.52455C72.6562 8.17874 74.9013 10.4246 77.5545 10.2204C80.2077 10.2204 82.4526 7.97458 82.2485 5.32039C82.2485 2.6662 80.0036 0.624512 77.3504 0.624512Z" fill="#F26120"/>
<path d="M72.8604 24.5119C72.8604 27.1661 74.9012 29.4119 77.7585 29.4119C80.4117 29.4119 82.6567 27.3702 82.6567 24.5119C82.6567 21.8577 80.4117 19.6118 77.7585 19.6118C74.9012 19.6118 72.8604 21.8577 72.8604 24.5119Z" fill="#F26120"/>
<path d="M73.0645 43.7042C73.0645 46.3584 75.1054 48.6043 77.9627 48.6043C80.6159 48.6043 82.8608 46.5626 82.8608 43.7042C82.8608 41.0501 80.6159 38.8042 77.9627 38.8042C75.1054 38.8042 73.0645 41.0501 73.0645 43.7042Z" fill="#F26120"/>
<path d="M73.0645 62.8961C73.0645 65.5503 75.3095 67.592 77.9627 67.592C80.6159 67.592 82.6567 65.3461 82.6567 62.692C82.6567 60.0378 80.4117 57.9961 77.7585 57.9961C75.1053 57.9961 73.0645 60.2419 73.0645 62.8961Z" fill="#F26120"/>
<path d="M63.2681 62.8959C63.2681 60.65 61.2273 58.8125 58.9823 58.8125C56.7373 58.8125 54.6963 60.65 54.6963 62.8959C54.6963 65.3459 56.7372 67.1834 59.1863 67.1834C61.4313 67.1834 63.2681 65.1417 63.2681 62.8959Z" fill="#F26120"/>
<path d="M63.0641 43.704C63.0641 41.4581 61.2272 39.6206 58.7781 39.6206C56.5331 39.6206 54.4922 41.4581 54.4922 43.704C54.4922 46.154 56.5331 47.9915 58.7781 47.9915C61.2272 47.9915 63.0641 46.154 63.0641 43.704Z" fill="#F26120"/>
<path d="M54.2881 24.7163C54.2881 26.9622 56.3291 28.7997 58.5741 28.7997C61.0232 28.7997 62.8599 26.758 62.8599 24.308C62.8599 22.0621 60.8191 20.2246 58.5741 20.2246C56.125 20.6329 54.2881 22.4705 54.2881 24.7163Z" fill="#F26120"/>
<path d="M54.084 6.13687C54.2881 8.58689 56.5331 10.2202 58.9822 10.0161C61.2272 9.8119 62.8599 7.56604 62.6558 5.32019C62.4517 3.07434 60.4109 1.44099 57.9618 1.64516C55.7168 1.64516 53.8799 3.89102 54.084 6.13687Z" fill="#F26120"/>
<path d="M36.3281 63.0998C36.3281 64.9373 37.7568 66.5706 39.7977 66.5706C41.6345 66.5706 43.2673 65.1415 43.2673 63.3039C43.2673 61.2623 41.6345 59.6289 39.7977 59.6289C37.9609 59.6289 36.3281 61.2623 36.3281 63.0998Z" fill="#F26120"/>
<path d="M43.0631 43.9084C43.0631 42.0709 41.4305 40.4375 39.5937 40.4375C37.5527 40.4375 36.1241 42.0709 36.1241 44.1125C36.1241 45.9501 37.7568 47.3792 39.7977 47.3792C41.6345 47.3792 43.2672 45.7459 43.0631 43.9084Z" fill="#F26120"/>
<path d="M42.859 24.9206C42.859 23.083 41.2262 21.4497 39.3894 21.4497C37.3485 21.4497 35.7158 23.083 35.9198 25.1247C35.9198 26.9622 37.5526 28.5956 39.3894 28.3914C41.4303 28.3914 42.859 26.7581 42.859 24.9206Z" fill="#F26120"/>
<path d="M42.8591 5.93278C42.8591 4.09526 41.4305 2.46191 39.5937 2.46191C37.7568 2.46191 36.1241 3.8911 36.1241 5.72861C36.1241 7.7703 37.5527 9.40365 39.5937 9.40365C41.2264 9.40365 42.655 7.7703 42.8591 5.93278Z" fill="#F26120"/>
<path d="M17.96 25.1247C17.96 26.5539 18.9804 27.5747 20.4091 27.5747C21.8377 27.5747 22.8582 26.5539 22.8582 25.1247C22.8582 23.6955 21.6336 22.6747 20.4091 22.6747C18.9804 22.4705 17.96 23.6955 17.96 25.1247Z" fill="#F26120"/>
<path d="M18.1641 44.3163C18.1641 45.7455 19.3886 46.7663 20.8173 46.7663C22.2459 46.7663 23.2664 45.5413 23.2664 44.1121C23.2664 42.6829 22.0417 41.6621 20.6131 41.6621C19.1845 41.6621 17.96 42.8871 18.1641 44.3163Z" fill="#F26120"/>
<path d="M18.1641 63.304C18.1641 64.7332 19.1845 65.7541 20.6131 65.7541C22.0417 65.7541 23.0622 64.7332 23.0622 63.304C23.0622 61.8749 21.8377 60.854 20.6131 60.854C19.3886 60.854 18.3682 61.8749 18.1641 63.304Z" fill="#F26120"/>
<path d="M17.7559 5.93283C17.7559 7.36201 18.7764 8.38285 20.205 8.58702C21.4296 8.58702 22.654 7.56618 22.654 6.137C22.654 4.70782 21.6337 3.68698 20.205 3.68698C18.7764 3.48281 17.7559 4.70782 17.7559 5.93283Z" fill="#F26120"/>
<path d="M0.612244 63.5082C0.612244 64.1207 1.22459 64.5291 1.83686 64.5291C2.44914 64.5291 2.85732 63.9166 2.85732 63.304C2.85732 62.6915 2.24497 62.2832 1.6327 62.2832C1.02043 62.4874 0.612244 63.0999 0.612244 63.5082Z" fill="#F26120"/>
<path d="M1.6327 43.2954C1.02043 43.2954 0.612244 43.7037 0.612244 44.3163C0.612244 44.9288 1.02043 45.3371 1.6327 45.5413C2.24497 45.5413 2.65315 45.1329 2.65315 44.5204C2.65315 43.9079 2.04088 43.2954 1.6327 43.2954Z" fill="#F26120"/>
<path d="M0.204041 25.3285C0.204041 25.941 0.816388 26.3494 1.42866 26.3494C2.04093 26.3494 2.44911 25.7369 2.44911 25.1244C2.44911 24.5119 1.83677 24.1035 1.22449 24.1035C0.612222 24.3077 0.204041 24.716 0.204041 25.3285Z" fill="#F26120"/>
<path d="M1.02045 5.11621C0.408181 5.11621 0 5.72871 0 6.34122C0 6.95372 0.612222 7.36206 1.22449 7.36206C1.83677 7.36206 2.24495 6.74956 2.24495 6.13705C2.24495 5.52455 1.63273 5.11621 1.02045 5.11621Z" fill="#F26120"/>
</svg>
